<?xml version="1.0" encoding="utf-8"?>
<!-- Generator: Adobe Illustrator 24.2.3, SVG Export Plug-In . SVG Version: 6.00 Build 0)  -->
<svg version="1.1" id="Text" xmlns="http://www.w3.org/2000/svg" xmlns:xlink="http://www.w3.org/1999/xlink" x="0px" y="0px"
	 viewBox="0 0 236.4 42.7" style="enable-background:new 0 0 236.4 42.7;" xml:space="preserve">
<style type="text/css">
	.st0{fill:#1C75BC;}
	.st1{fill:#F7941D;}
</style>
<g>
	<g>
		<g>
			<path class="st0" d="M58.2,31h-2.6v-9h-9.9v9h-2.6V11.5h2.6v8.4h9.9v-8.4h2.6V31z"/>
			<path class="st0" d="M68.4,31.3c-2,0-3.6-0.6-4.8-1.9c-1.2-1.3-1.9-3-1.9-5.2v-0.5c0-1.4,0.3-2.7,0.8-3.9c0.6-1.1,1.3-2,2.3-2.7
				c1-0.6,2.1-1,3.2-1c1.9,0,3.4,0.6,4.4,1.9c1,1.2,1.6,3,1.6,5.3v1h-9.8c0,1.4,0.5,2.6,1.3,3.5c0.8,0.9,1.8,1.3,3.1,1.3
				c0.9,0,1.6-0.2,2.2-0.5c0.6-0.4,1.1-0.8,1.6-1.4l1.5,1.2C72.7,30.4,70.8,31.3,68.4,31.3z M68.1,18.3c-1,0-1.8,0.4-2.5,1.1
				c-0.7,0.7-1.1,1.8-1.3,3.1h7.3v-0.2c-0.1-1.3-0.4-2.2-1-2.9C69.9,18.6,69.1,18.3,68.1,18.3z"/>
			<path class="st0" d="M85.9,31c-0.1-0.3-0.3-0.8-0.3-1.5c-1.2,1.2-2.5,1.8-4.1,1.8c-1.4,0-2.6-0.4-3.5-1.2
				c-0.9-0.8-1.4-1.8-1.4-3.1c0-1.5,0.6-2.7,1.7-3.5c1.2-0.8,2.8-1.3,4.9-1.3h2.4v-1.1c0-0.9-0.3-1.6-0.8-2.1
				c-0.5-0.5-1.3-0.8-2.3-0.8c-0.9,0-1.6,0.2-2.2,0.7c-0.6,0.4-0.9,1-0.9,1.6h-2.5c0-0.7,0.3-1.4,0.8-2.1c0.5-0.7,1.2-1.2,2.1-1.6
				c0.9-0.4,1.9-0.6,2.9-0.6c1.7,0,3,0.4,3.9,1.3c0.9,0.8,1.4,2,1.5,3.5v6.7c0,1.3,0.2,2.4,0.5,3.2V31H85.9z M81.8,29.1
				c0.8,0,1.5-0.2,2.2-0.6c0.7-0.4,1.2-0.9,1.5-1.6v-3h-1.9c-3,0-4.6,0.9-4.6,2.7c0,0.8,0.3,1.4,0.8,1.8
				C80.3,28.9,81,29.1,81.8,29.1z"/>
			<path class="st0" d="M94.6,31h-2.5V11.5h2.5V31z"/>
			<path class="st0" d="M101.9,12.6v3.5h2.7v1.9h-2.7v9.4c0,0.6,0.1,1,0.4,1.3c0.2,0.3,0.7,0.4,1.2,0.4c0.3,0,0.7-0.1,1.2-0.2v2
				c-0.7,0.2-1.3,0.3-1.9,0.3c-1.1,0-1.9-0.3-2.5-1c-0.6-0.7-0.8-1.6-0.8-2.9v-9.4h-2.6v-1.9h2.6v-3.5H101.9z"/>
			<path class="st0" d="M110,18.3c1.1-1.4,2.5-2,4.3-2c3.1,0,4.6,1.7,4.6,5.2V31h-2.5v-9.6c0-1-0.2-1.8-0.7-2.3
				c-0.5-0.5-1.2-0.8-2.2-0.8c-0.8,0-1.5,0.2-2.1,0.6c-0.6,0.4-1.1,1-1.4,1.7V31h-2.5V11.5h2.5V18.3z"/>
		</g>
	</g>
	<g>
		<g>
			<path class="st1" d="M34.4,11.7c0,0.1,0,0.1,0,0.2c0,0.3,0,0.5-0.1,0.7c-0.1,0.2-0.2,0.4-0.4,0.6c-0.2,0.2-0.4,0.3-0.6,0.4
				c-0.2,0.1-0.5,0.1-0.8,0.1c-0.3,0-0.6,0-0.8-0.1c-0.2-0.1-0.4-0.2-0.6-0.4c-0.2-0.2-0.3-0.4-0.4-0.6c-0.1-0.2-0.1-0.5-0.1-0.7
				c0-0.5,0.2-1,0.5-1.3c0.3-0.3,0.8-0.5,1.3-0.5c-0.6-0.4-1.2-0.7-1.8-1c-4.1-2-8.6-2.3-13.1-2.1c-4.3,0.2-8.8,1.3-12.4,3.8
				c-3.2,2.2-6.1,7.8-2.1,10.8c1.8,1.3,4,2,6.2,2.4c1.8,0.3,3.5,0.3,5.1,0.2l5-13.4h3.4l6.6,17.6h-3.8l-1.2-3.6h-6.3l-1.4,4.3
				c3.6,1.5,10.2,1.8,10.2,1.8C24,31.5,21,31.2,21,31.2c3.3,2.2,2.9,2.5,5.1,6.2c0.7,1.2,2.3,3.1,3.9,2c0.1-0.1,0.2-0.2,0.3-0.3
				c0.1-0.3,0-0.7-0.1-1.1c-0.2-1-0.4-2-0.6-3c0.2,0.8,2.7,0,3.1-0.1c1-0.4,2-1.1,2.5-2.1c0.4-0.9,0.7-1.9,0.7-2.9
				c-4,1.1-4.3,0.4-4.3,0.4c4.3-0.7,5.4-1.8,5.4-1.8C41.9,23.1,39.2,16,34.4,11.7z M34.3,28.3h-3.5v-13h3.5V28.3z"/>
			<polygon class="st1" points="20.9,15.2 18.7,21.8 23.1,21.8 			"/>
		</g>
		<path class="st1" d="M35.4,6.8c-0.4-0.4-0.6-0.8-0.6-1.3c0-0.5,0.2-1,0.6-1.4c0.2-0.2,0.4-0.4,0.6-0.5c0.2-0.1,0.5-0.2,0.7-0.2
			c0.2,0,0.5,0,0.7,0.1c0.2,0.1,0.4,0.2,0.6,0.4c0.2,0.2,0.3,0.4,0.4,0.6c0.1,0.2,0.2,0.4,0.2,0.7c0,0.2,0,0.5-0.1,0.7
			c-0.1,0.2-0.2,0.5-0.4,0.7c-0.2,0.2-0.4,0.4-0.6,0.5c-0.2,0.1-0.5,0.2-0.7,0.2c-0.2,0-0.5,0-0.7-0.1C35.8,7.1,35.6,7,35.4,6.8z"/>
	</g>
</g>

</svg>
